# xmcd
# 
# Track frame offsets:
#     182
#     22362
#     40285
#     77417
#     92377
#     107652
#     122190
#     145080
#     163925
#     191425
#     216160
# 
# Disc length: 3015
# 
# Revision: 5
# Processed by: cddbd v1.5.2PL0 Copyright (c) Steve Scherf et al.
# Submitted via: fre:ac v1.1beta1pre4
# 
DISCID=930bc50b
DTITLE=Eric Clapton - Behind the Sun
DYEAR=0
DGENRE=
TTITLE0=She's Waiting
TTITLE1=See What Love Can Do
TTITLE2=Same Old Blues
TTITLE3=Knock on Wood
TTITLE4=Something's Happening
TTITLE5=Forever Man
TTITLE6=It All Depends
TTITLE7=Tangled in Love
TTITLE8=Never Make You Cry
TTITLE9=Just Like a Prisoner
TTITLE10=Behind the Sun
EXTD=
EXTT0=
EXTT1=
EXTT2=
EXTT3=
EXTT4=
EXTT5=
EXTT6=
EXTT7=
EXTT8=
EXTT9=
EXTT10=
PLAYORDER=
